<svg xmlns="http://www.w3.org/2000/svg" viewBox="0 0 16 16"><path fill="#F44336" d="m15.265 8 .702-1.831a.5.5 0 0 0-.152-.568l-1.522-1.234-.308-1.937a.5.5 0 0 0-.416-.415l-1.937-.308L10.399.184a.5.5 0 0 0-.567-.152L8 .735 6.169.033a.499.499 0 0 0-.567.152L4.368 1.708l-1.937.308a.501.501 0 0 0-.415.415l-.308 1.937L.185 5.602a.5.5 0 0 0-.152.567L.735 8 .033 9.831a.499.499 0 0 0 .152.567l1.523 1.233.308 1.937a.5.5 0 0 0 .415.416l1.937.308 1.234 1.522c.137.17.366.23.568.152L8 15.265l1.831.702a.502.502 0 0 0 .568-.153l1.233-1.522 1.937-.308a.5.5 0 0 0 .416-.416l.308-1.937 1.522-1.233a.5.5 0 0 0 .152-.567L15.265 8z"/><path fill="#FAFAFA" d="M6.5 7C5.673 7 5 6.327 5 5.5S5.673 4 6.5 4 8 4.673 8 5.5 7.327 7 6.5 7zm0-2a.5.5 0 1 0 0 1 .5.5 0 0 0 0-1zM9.5 12c-.827 0-1.5-.673-1.5-1.5S8.673 9 9.5 9s1.5.673 1.5 1.5-.673 1.5-1.5 1.5zm0-2c-.275 0-.5.225-.5.5s.225.5.5.5.5-.225.5-.5-.225-.5-.5-.5zM5.5 12a.5.5 0 0 1-.406-.791l5-7a.5.5 0 1 1 .814.581l-5 7A.502.502 0 0 1 5.5 12z"/></svg>